<svg xmlns="http://www.w3.org/2000/svg" width="736" height="576" viewBox="0 0 736 576">
<rect x="0" y="0" width="736" height="576" fill="#1a5c2a" stroke="#0d3317" stroke-width="4"/>
<circle cx="32" cy="32" r="12.8" fill="#c8b273" stroke="#8a7a4d"/><circle cx="32" cy="32" r="8.0" fill="#1a5c2a"/>
<circle cx="704" cy="32" r="12.8" fill="#c8b273" stroke="#8a7a4d"/><circle cx="704" cy="32" r="8.0" fill="#1a5c2a"/>
<circle cx="32" cy="544" r="12.8" fill="#c8b273" stroke="#8a7a4d"/><circle cx="32" cy="544" r="8.0" fill="#1a5c2a"/>
<circle cx="704" cy="544" r="12.8" fill="#c8b273" stroke="#8a7a4d"/><circle cx="704" cy="544" r="8.0" fill="#1a5c2a"/>
<rect x="260.0" y="84.0" width="24.0" height="308.8" fill="none" stroke="#eee" stroke-width="1.5"/>
<circle cx="272" cy="96.0" r="6.8" fill="#c8b273" stroke="#8a7a4d"/><circle cx="272" cy="96.0" r="4.0" fill="#333"/>
<circle cx="272" cy="116.32" r="6.8" fill="#c8b273" stroke="#8a7a4d"/><circle cx="272" cy="116.32" r="4.0" fill="#333"/>
<circle cx="272" cy="136.64" r="6.8" fill="#c8b273" stroke="#8a7a4d"/><circle cx="272" cy="136.64" r="4.0" fill="#333"/>
<circle cx="272" cy="156.96" r="6.8" fill="#c8b273" stroke="#8a7a4d"/><circle cx="272" cy="156.96" r="4.0" fill="#333"/>
<circle cx="272" cy="177.28" r="6.8" fill="#c8b273" stroke="#8a7a4d"/><circle cx="272" cy="177.28" r="4.0" fill="#333"/>
<circle cx="272" cy="197.6" r="6.8" fill="#c8b273" stroke="#8a7a4d"/><circle cx="272" cy="197.6" r="4.0" fill="#333"/>
<text x="284.8" y="201.6" font-size="10" fill="#fff" font-family="monospace">GPIO32</text>
<circle cx="272" cy="217.92000000000002" r="6.8" fill="#c8b273" stroke="#8a7a4d"/><circle cx="272" cy="217.92000000000002" r="4.0" fill="#333"/>
<circle cx="272" cy="238.24" r="6.8" fill="#c8b273" stroke="#8a7a4d"/><circle cx="272" cy="238.24" r="4.0" fill="#333"/>
<text x="284.8" y="242.24" font-size="10" fill="#fff" font-family="monospace">RADAR_OUT</text>
<circle cx="272" cy="258.56" r="6.8" fill="#c8b273" stroke="#8a7a4d"/><circle cx="272" cy="258.56" r="4.0" fill="#333"/>
<circle cx="272" cy="278.88" r="6.8" fill="#c8b273" stroke="#8a7a4d"/><circle cx="272" cy="278.88" r="4.0" fill="#333"/>
<text x="284.8" y="282.88" font-size="10" fill="#fff" font-family="monospace">REED</text>
<circle cx="272" cy="299.2" r="6.8" fill="#c8b273" stroke="#8a7a4d"/><circle cx="272" cy="299.2" r="4.0" fill="#333"/>
<circle cx="272" cy="319.52" r="6.8" fill="#c8b273" stroke="#8a7a4d"/><circle cx="272" cy="319.52" r="4.0" fill="#333"/>
<circle cx="272" cy="339.84000000000003" r="6.8" fill="#c8b273" stroke="#8a7a4d"/><circle cx="272" cy="339.84000000000003" r="4.0" fill="#333"/>
<circle cx="272" cy="360.16" r="6.8" fill="#c8b273" stroke="#8a7a4d"/><circle cx="272" cy="360.16" r="4.0" fill="#333"/>
<text x="284.8" y="364.16" font-size="10" fill="#fff" font-family="monospace">GND</text>
<circle cx="272" cy="380.48" r="6.8" fill="#c8b273" stroke="#8a7a4d"/><circle cx="272" cy="380.48" r="4.0" fill="#333"/>
<text x="284.8" y="384.48" font-size="10" fill="#fff" font-family="monospace">+5V</text>
<text x="272" y="81.6" font-size="13" fill="#ffd" font-family="monospace" font-weight="bold">J1A</text>
<rect x="463.2" y="84.0" width="24.0" height="308.8" fill="none" stroke="#eee" stroke-width="1.5"/>
<circle cx="475.2" cy="96.0" r="6.8" fill="#c8b273" stroke="#8a7a4d"/><circle cx="475.2" cy="96.0" r="4.0" fill="#333"/>
<text x="488.0" y="100.0" font-size="10" fill="#fff" font-family="monospace">SPI_MOSI</text>
<circle cx="475.2" cy="116.32" r="6.8" fill="#c8b273" stroke="#8a7a4d"/><circle cx="475.2" cy="116.32" r="4.0" fill="#333"/>
<circle cx="475.2" cy="136.64" r="6.8" fill="#c8b273" stroke="#8a7a4d"/><circle cx="475.2" cy="136.64" r="4.0" fill="#333"/>
<circle cx="475.2" cy="156.96" r="6.8" fill="#c8b273" stroke="#8a7a4d"/><circle cx="475.2" cy="156.96" r="4.0" fill="#333"/>
<circle cx="475.2" cy="177.28" r="6.8" fill="#c8b273" stroke="#8a7a4d"/><circle cx="475.2" cy="177.28" r="4.0" fill="#333"/>
<circle cx="475.2" cy="197.6" r="6.8" fill="#c8b273" stroke="#8a7a4d"/><circle cx="475.2" cy="197.6" r="4.0" fill="#333"/>
<text x="488.0" y="201.6" font-size="10" fill="#fff" font-family="monospace">SPI_MISO</text>
<circle cx="475.2" cy="217.92000000000002" r="6.8" fill="#c8b273" stroke="#8a7a4d"/><circle cx="475.2" cy="217.92000000000002" r="4.0" fill="#333"/>
<text x="488.0" y="221.92000000000002" font-size="10" fill="#fff" font-family="monospace">SPI_SCK</text>
<circle cx="475.2" cy="238.24" r="6.8" fill="#c8b273" stroke="#8a7a4d"/><circle cx="475.2" cy="238.24" r="4.0" fill="#333"/>
<text x="488.0" y="242.24" font-size="10" fill="#fff" font-family="monospace">RC522_SS</text>
<circle cx="475.2" cy="258.56" r="6.8" fill="#c8b273" stroke="#8a7a4d"/><circle cx="475.2" cy="258.56" r="4.0" fill="#333"/>
<text x="488.0" y="262.56" font-size="10" fill="#fff" font-family="monospace">RADAR_RXD</text>
<circle cx="475.2" cy="278.88" r="6.8" fill="#c8b273" stroke="#8a7a4d"/><circle cx="475.2" cy="278.88" r="4.0" fill="#333"/>
<text x="488.0" y="282.88" font-size="10" fill="#fff" font-family="monospace">RADAR_TXD</text>
<circle cx="475.2" cy="299.2" r="6.8" fill="#c8b273" stroke="#8a7a4d"/><circle cx="475.2" cy="299.2" r="4.0" fill="#333"/>
<text x="488.0" y="303.2" font-size="10" fill="#fff" font-family="monospace">RC522_RST</text>
<circle cx="475.2" cy="319.52" r="6.8" fill="#c8b273" stroke="#8a7a4d"/><circle cx="475.2" cy="319.52" r="4.0" fill="#333"/>
<text x="488.0" y="323.52" font-size="10" fill="#fff" font-family="monospace">GPIO2_LED</text>
<circle cx="475.2" cy="339.84000000000003" r="6.8" fill="#c8b273" stroke="#8a7a4d"/><circle cx="475.2" cy="339.84000000000003" r="4.0" fill="#333"/>
<circle cx="475.2" cy="360.16" r="6.8" fill="#c8b273" stroke="#8a7a4d"/><circle cx="475.2" cy="360.16" r="4.0" fill="#333"/>
<text x="488.0" y="364.16" font-size="10" fill="#fff" font-family="monospace">GND</text>
<circle cx="475.2" cy="380.48" r="6.8" fill="#c8b273" stroke="#8a7a4d"/><circle cx="475.2" cy="380.48" r="4.0" fill="#333"/>
<text x="488.0" y="384.48" font-size="10" fill="#fff" font-family="monospace">+3V3</text>
<text x="475.2" y="81.6" font-size="13" fill="#ffd" font-family="monospace" font-weight="bold">J1B</text>
<rect x="628.0" y="68.0" width="24.0" height="166.4" fill="none" stroke="#eee" stroke-width="1.5"/>
<circle cx="640" cy="80.0" r="6.8" fill="#c8b273" stroke="#8a7a4d"/><circle cx="640" cy="80.0" r="4.0" fill="#333"/>
<text x="652.8" y="84.0" font-size="10" fill="#fff" font-family="monospace">RC522_SS</text>
<circle cx="640" cy="100.32" r="6.8" fill="#c8b273" stroke="#8a7a4d"/><circle cx="640" cy="100.32" r="4.0" fill="#333"/>
<text x="652.8" y="104.32" font-size="10" fill="#fff" font-family="monospace">SPI_SCK</text>
<circle cx="640" cy="120.64" r="6.8" fill="#c8b273" stroke="#8a7a4d"/><circle cx="640" cy="120.64" r="4.0" fill="#333"/>
<text x="652.8" y="124.64" font-size="10" fill="#fff" font-family="monospace">SPI_MOSI</text>
<circle cx="640" cy="140.96" r="6.8" fill="#c8b273" stroke="#8a7a4d"/><circle cx="640" cy="140.96" r="4.0" fill="#333"/>
<text x="652.8" y="144.96" font-size="10" fill="#fff" font-family="monospace">SPI_MISO</text>
<circle cx="640" cy="161.28" r="6.8" fill="#c8b273" stroke="#8a7a4d"/><circle cx="640" cy="161.28" r="4.0" fill="#333"/>
<circle cx="640" cy="181.6" r="6.8" fill="#c8b273" stroke="#8a7a4d"/><circle cx="640" cy="181.6" r="4.0" fill="#333"/>
<text x="652.8" y="185.6" font-size="10" fill="#fff" font-family="monospace">GND</text>
<circle cx="640" cy="201.92000000000002" r="6.8" fill="#c8b273" stroke="#8a7a4d"/><circle cx="640" cy="201.92000000000002" r="4.0" fill="#333"/>
<text x="652.8" y="205.92000000000002" font-size="10" fill="#fff" font-family="monospace">RC522_RST</text>
<circle cx="640" cy="222.24" r="6.8" fill="#c8b273" stroke="#8a7a4d"/><circle cx="640" cy="222.24" r="4.0" fill="#333"/>
<text x="652.8" y="226.24" font-size="10" fill="#fff" font-family="monospace">+3V3</text>
<text x="640" y="65.6" font-size="13" fill="#ffd" font-family="monospace" font-weight="bold">J2</text>
<rect x="628.0" y="276.0" width="24.0" height="105.60000000000002" fill="none" stroke="#eee" stroke-width="1.5"/>
<circle cx="640" cy="288.0" r="6.8" fill="#c8b273" stroke="#8a7a4d"/><circle cx="640" cy="288.0" r="4.0" fill="#333"/>
<text x="652.8" y="292.0" font-size="10" fill="#fff" font-family="monospace">+5V</text>
<circle cx="640" cy="308.32" r="6.8" fill="#c8b273" stroke="#8a7a4d"/><circle cx="640" cy="308.32" r="4.0" fill="#333"/>
<text x="652.8" y="312.32" font-size="10" fill="#fff" font-family="monospace">GND</text>
<circle cx="640" cy="328.64" r="6.8" fill="#c8b273" stroke="#8a7a4d"/><circle cx="640" cy="328.64" r="4.0" fill="#333"/>
<text x="652.8" y="332.64" font-size="10" fill="#fff" font-family="monospace">RADAR_OUT</text>
<circle cx="640" cy="348.96" r="6.8" fill="#c8b273" stroke="#8a7a4d"/><circle cx="640" cy="348.96" r="4.0" fill="#333"/>
<text x="652.8" y="352.96" font-size="10" fill="#fff" font-family="monospace">RADAR_RXD</text>
<circle cx="640" cy="369.28" r="6.8" fill="#c8b273" stroke="#8a7a4d"/><circle cx="640" cy="369.28" r="4.0" fill="#333"/>
<text x="652.8" y="373.28" font-size="10" fill="#fff" font-family="monospace">RADAR_TXD</text>
<text x="640" y="273.6" font-size="13" fill="#ffd" font-family="monospace" font-weight="bold">J3</text>
<rect x="44.0" y="88" width="56.0" height="88" fill="none" stroke="#eee" stroke-width="1.5"/>
<circle cx="72" cy="112" r="10.4" fill="#c8b273" stroke="#8a7a4d"/><circle cx="72" cy="112" r="5.2" fill="#333"/>
<text x="84.8" y="116" font-size="10" fill="#fff" font-family="monospace">+12V</text>
<circle cx="72" cy="152" r="10.4" fill="#c8b273" stroke="#8a7a4d"/><circle cx="72" cy="152" r="5.2" fill="#333"/>
<text x="84.8" y="156" font-size="10" fill="#fff" font-family="monospace">GND</text>
<text x="72" y="97.6" font-size="13" fill="#ffd" font-family="monospace" font-weight="bold">J4</text>
<rect x="44.0" y="208" width="56.0" height="88" fill="none" stroke="#eee" stroke-width="1.5"/>
<circle cx="72" cy="232" r="10.4" fill="#c8b273" stroke="#8a7a4d"/><circle cx="72" cy="232" r="5.2" fill="#333"/>
<text x="84.8" y="236" font-size="10" fill="#fff" font-family="monospace">+12V</text>
<circle cx="72" cy="272" r="10.4" fill="#c8b273" stroke="#8a7a4d"/><circle cx="72" cy="272" r="5.2" fill="#333"/>
<text x="84.8" y="276" font-size="10" fill="#fff" font-family="monospace">SIREN_SW</text>
<text x="72" y="217.6" font-size="13" fill="#ffd" font-family="monospace" font-weight="bold">J5</text>
<rect x="44.0" y="328" width="56.0" height="88" fill="none" stroke="#eee" stroke-width="1.5"/>
<circle cx="72" cy="352" r="10.4" fill="#c8b273" stroke="#8a7a4d"/><circle cx="72" cy="352" r="5.2" fill="#333"/>
<text x="84.8" y="356" font-size="10" fill="#fff" font-family="monospace">REED</text>
<circle cx="72" cy="392" r="10.4" fill="#c8b273" stroke="#8a7a4d"/><circle cx="72" cy="392" r="5.2" fill="#333"/>
<text x="84.8" y="396" font-size="10" fill="#fff" font-family="monospace">GND</text>
<text x="72" y="337.6" font-size="13" fill="#ffd" font-family="monospace" font-weight="bold">J6</text>
<rect x="112" y="448" width="144" height="80" fill="none" stroke="#eee" stroke-width="1.5"/>
<circle cx="128" cy="464" r="7.6" fill="#c8b273" stroke="#8a7a4d"/><circle cx="128" cy="464" r="4.4" fill="#333"/>
<text x="140.8" y="468" font-size="10" fill="#fff" font-family="monospace">+12V</text>
<circle cx="128" cy="512" r="7.6" fill="#c8b273" stroke="#8a7a4d"/><circle cx="128" cy="512" r="4.4" fill="#333"/>
<text x="140.8" y="516" font-size="10" fill="#fff" font-family="monospace">GND</text>
<circle cx="240" cy="464" r="7.6" fill="#c8b273" stroke="#8a7a4d"/><circle cx="240" cy="464" r="4.4" fill="#333"/>
<text x="252.8" y="468" font-size="10" fill="#fff" font-family="monospace">+5V</text>
<circle cx="240" cy="512" r="7.6" fill="#c8b273" stroke="#8a7a4d"/><circle cx="240" cy="512" r="4.4" fill="#333"/>
<text x="252.8" y="516" font-size="10" fill="#fff" font-family="monospace">GND</text>
<text x="128" y="449.6" font-size="13" fill="#ffd" font-family="monospace" font-weight="bold">U1</text>
<rect x="308.0" y="476.0" width="64.0" height="40.0" fill="none" stroke="#eee" stroke-width="1.5"/>
<circle cx="320" cy="496" r="7.6" fill="#c8b273" stroke="#8a7a4d"/><circle cx="320" cy="496" r="4.4" fill="#333"/>
<text x="332.8" y="500" font-size="10" fill="#fff" font-family="monospace">GATE</text>
<circle cx="340.32" cy="496" r="7.6" fill="#c8b273" stroke="#8a7a4d"/><circle cx="340.32" cy="496" r="4.4" fill="#333"/>
<text x="353.12" y="500" font-size="10" fill="#fff" font-family="monospace">SIREN_SW</text>
<circle cx="360.64" cy="496" r="7.6" fill="#c8b273" stroke="#8a7a4d"/><circle cx="360.64" cy="496" r="4.4" fill="#333"/>
<text x="373.44" y="500" font-size="10" fill="#fff" font-family="monospace">GND</text>
<text x="320" y="481.6" font-size="13" fill="#ffd" font-family="monospace" font-weight="bold">Q1</text>
<circle cx="384" cy="432" r="6.8" fill="#c8b273" stroke="#8a7a4d"/><circle cx="384" cy="432" r="3.6" fill="#333"/>
<text x="396.8" y="436" font-size="10" fill="#fff" font-family="monospace">GPIO32</text>
<circle cx="384" cy="480" r="6.8" fill="#c8b273" stroke="#8a7a4d"/><circle cx="384" cy="480" r="3.6" fill="#333"/>
<text x="396.8" y="484" font-size="10" fill="#fff" font-family="monospace">GATE</text>
<text x="384" y="417.6" font-size="13" fill="#ffd" font-family="monospace" font-weight="bold">R1</text>
<circle cx="416" cy="496" r="6.8" fill="#c8b273" stroke="#8a7a4d"/><circle cx="416" cy="496" r="3.6" fill="#333"/>
<text x="428.8" y="500" font-size="10" fill="#fff" font-family="monospace">GATE</text>
<circle cx="416" cy="544" r="6.8" fill="#c8b273" stroke="#8a7a4d"/><circle cx="416" cy="544" r="3.6" fill="#333"/>
<text x="428.8" y="548" font-size="10" fill="#fff" font-family="monospace">GND</text>
<text x="416" y="481.6" font-size="13" fill="#ffd" font-family="monospace" font-weight="bold">R2</text>
<circle cx="512" cy="464" r="6.8" fill="#c8b273" stroke="#8a7a4d"/><circle cx="512" cy="464" r="3.6" fill="#333"/>
<text x="524.8" y="468" font-size="10" fill="#fff" font-family="monospace">GPIO2_LED</text>
<circle cx="560" cy="464" r="6.8" fill="#c8b273" stroke="#8a7a4d"/><circle cx="560" cy="464" r="3.6" fill="#333"/>
<text x="572.8" y="468" font-size="10" fill="#fff" font-family="monospace">LED_A</text>
<text x="512" y="449.6" font-size="13" fill="#ffd" font-family="monospace" font-weight="bold">R3</text>
<circle cx="592" cy="464" r="6.8" fill="#c8b273" stroke="#8a7a4d"/><circle cx="592" cy="464" r="3.6" fill="#333"/>
<text x="604.8" y="468" font-size="10" fill="#fff" font-family="monospace">LED_A</text>
<circle cx="612.32" cy="464" r="6.8" fill="#c8b273" stroke="#8a7a4d"/><circle cx="612.32" cy="464" r="3.6" fill="#333"/>
<text x="625.12" y="468" font-size="10" fill="#fff" font-family="monospace">GND</text>
<text x="592" y="449.6" font-size="13" fill="#ffd" font-family="monospace" font-weight="bold">LED1</text>
<circle cx="128" cy="320" r="7.6" fill="#c8b273" stroke="#8a7a4d"/><circle cx="128" cy="320" r="4.4" fill="#333"/>
<text x="140.8" y="324" font-size="10" fill="#fff" font-family="monospace">+12V</text>
<circle cx="128" cy="384" r="7.6" fill="#c8b273" stroke="#8a7a4d"/><circle cx="128" cy="384" r="4.4" fill="#333"/>
<text x="140.8" y="388" font-size="10" fill="#fff" font-family="monospace">SIREN_SW</text>
<text x="128" y="305.6" font-size="13" fill="#ffd" font-family="monospace" font-weight="bold">D1</text>
<circle cx="288" cy="464" r="6.8" fill="#c8b273" stroke="#8a7a4d"/><circle cx="288" cy="464" r="3.6" fill="#333"/>
<text x="300.8" y="468" font-size="10" fill="#fff" font-family="monospace">+5V</text>
<circle cx="288" cy="492.0" r="6.8" fill="#c8b273" stroke="#8a7a4d"/><circle cx="288" cy="492.0" r="3.6" fill="#333"/>
<text x="300.8" y="496.0" font-size="10" fill="#fff" font-family="monospace">GND</text>
<text x="288" y="449.6" font-size="13" fill="#ffd" font-family="monospace" font-weight="bold">C1</text>
<text x="272" y="40" font-size="16" fill="#fff" font-family="monospace" font-weight="bold">GARAGE ALARM v1</text>
</svg>